<svg width="25" height="24" viewBox="0 0 25 24" fill="none" xmlns="http://www.w3.org/2000/svg">
<g id="Bag - Outline">
<path id="Vector" d="M21.0831 14.15V18.4C21.0831 19.494 20.2961 20.436 19.2111 20.58C17.1241 20.857 14.9951 21 12.8331 21C10.6711 21 8.54206 20.857 6.45506 20.58C5.37006 20.436 4.58306 19.494 4.58306 18.4V14.15M21.0831 14.15C21.3205 13.9436 21.5105 13.6883 21.64 13.4016C21.7694 13.1149 21.8353 12.8036 21.8331 12.489V8.706C21.8331 7.625 21.0651 6.691 19.9961 6.531C18.8634 6.36142 17.725 6.23234 16.5831 6.144M21.0831 14.15C20.8891 14.315 20.6631 14.445 20.4101 14.53C17.9663 15.3408 15.4079 15.7528 12.8331 15.75C10.1851 15.75 7.63806 15.321 5.25606 14.53C5.00932 14.4479 4.78079 14.3189 4.58306 14.15M4.58306 14.15C4.34561 13.9436 4.15562 13.6883 4.02616 13.4016C3.8967 13.1149 3.83083 12.8036 3.83306 12.489V8.706C3.83306 7.625 4.60106 6.691 5.67006 6.531C6.80276 6.36142 7.94115 6.23233 9.08306 6.144M16.5831 6.144V5.25C16.5831 4.65326 16.346 4.08097 15.9241 3.65901C15.5021 3.23705 14.9298 3 14.3331 3H11.3331C10.7363 3 10.164 3.23705 9.74207 3.65901C9.32012 4.08097 9.08306 4.65326 9.08306 5.25V6.144M16.5831 6.144C14.0868 5.95108 11.5793 5.95108 9.08306 6.144M12.8331 12.75H12.8411V12.758H12.8331V12.75Z" stroke="#C5C5C5" stroke-width="1.5" stroke-linecap="round" stroke-linejoin="round"/>
</g>
</svg>
