<svg width="25" height="24" viewBox="0 0 25 24" fill="none" xmlns="http://www.w3.org/2000/svg">
<g id="Home - Fill">
<path id="Vector" d="M11.2833 3.48634L11.283 3.48656L2.59682 12.1728C2.54994 12.217 2.48776 12.2414 2.42324 12.2409C2.35769 12.2403 2.29497 12.2141 2.2486 12.1678C2.20223 12.1214 2.1759 12.0587 2.1753 11.9932C2.17471 11.9287 2.19904 11.8666 2.24314 11.8197L10.9291 3.13367L10.5756 2.78011L10.9291 3.13366C11.0916 2.97116 11.2846 2.84225 11.4969 2.75431C11.7092 2.66636 11.9368 2.62109 12.1666 2.62109C12.3964 2.62109 12.624 2.66636 12.8363 2.75431C13.0486 2.84225 13.2415 2.97115 13.404 3.13365C13.404 3.13365 13.404 3.13366 13.404 3.13366L22.093 11.8236L22.0993 11.8299L22.1057 11.8359C22.1303 11.8588 22.15 11.8864 22.1637 11.9171C22.1773 11.9477 22.1847 11.9808 22.1853 12.0144C22.1858 12.048 22.1797 12.0813 22.1671 12.1124C22.1545 12.1436 22.1358 12.1719 22.1121 12.1956C22.0883 12.2193 22.06 12.2381 22.0289 12.2506C21.9978 12.2632 21.9644 12.2694 21.9309 12.2688C21.8973 12.2682 21.8642 12.2608 21.8335 12.2472C21.8029 12.2335 21.7753 12.2138 21.7524 12.1892L21.7464 12.1828L21.7401 12.1766L13.0501 3.48656L13.0499 3.48634C12.8155 3.25226 12.4978 3.12077 12.1666 3.12077C11.8353 3.12077 11.5176 3.25226 11.2833 3.48634Z" fill="white" stroke="white"/>
<path id="Vector_2" d="M12.1665 5.43218L20.3255 13.5912C20.3555 13.6212 20.3855 13.6492 20.4165 13.6772V19.8752C20.4165 20.9102 19.5765 21.7502 18.5415 21.7502H15.1665C14.9676 21.7502 14.7768 21.6712 14.6362 21.5305C14.4955 21.3899 14.4165 21.1991 14.4165 21.0002V16.5002C14.4165 16.3013 14.3375 16.1105 14.1968 15.9698C14.0562 15.8292 13.8654 15.7502 13.6665 15.7502H10.6665C10.4676 15.7502 10.2768 15.8292 10.1362 15.9698C9.99552 16.1105 9.9165 16.3013 9.9165 16.5002V21.0002C9.9165 21.1991 9.83749 21.3899 9.69683 21.5305C9.55618 21.6712 9.36542 21.7502 9.1665 21.7502H5.7915C5.29422 21.7502 4.81731 21.5526 4.46568 21.201C4.11405 20.8494 3.9165 20.3725 3.9165 19.8752V13.6772C3.94762 13.6493 3.97796 13.6207 4.0075 13.5912L12.1665 5.43018V5.43218Z" fill="white"/>
</g>
</svg>
