<svg width="40" height="26" viewBox="0 0 40 26" fill="none" xmlns="http://www.w3.org/2000/svg">
<g id="Logo">
<g id="Union">
<path d="M0 0H6.06939V2.50172H2.62914V23.4983H6.06939V26H0V0Z" fill="white"/>
<path fill-rule="evenodd" clip-rule="evenodd" d="M26.3422 6.24032C24.7985 4.63171 22.673 3.82741 19.9659 3.82741C18.2431 3.82741 16.7217 4.21773 15.4017 4.99838C14.0817 5.75537 13.0525 6.83171 12.3142 8.22741C11.9401 8.94427 11.6638 9.71924 11.4852 10.5523H7.86472L6.06939 14.5082H11.3306C11.4813 15.7347 11.8203 16.8465 12.3478 17.8436C13.1085 19.2156 14.1712 20.2801 15.536 21.0371C16.9231 21.7941 18.5452 22.1726 20.4021 22.1726C21.834 22.1726 23.1876 21.9124 24.4629 21.3919C25.7382 20.8715 26.8121 20.1382 27.6846 19.1919L25.2012 16.4952C24.6642 17.0156 23.9819 17.4296 23.154 17.7371C22.3262 18.021 21.4649 18.1629 20.5699 18.1629C19.2499 18.1629 18.1536 17.8317 17.2811 17.1694C16.4309 16.507 15.9275 15.62 15.7709 14.5082H32.401L33.7973 10.5523H28.4707C28.1566 8.81205 27.4471 7.3747 26.3422 6.24032ZM24.2255 10.5523C24.0305 9.80106 23.651 9.17985 23.0869 8.6887C22.3262 8.02634 21.3306 7.69516 20.1001 7.69516C18.9143 7.69516 17.9411 8.02634 17.1804 8.6887C16.6297 9.16513 16.2408 9.78634 16.0137 10.5523H24.2255Z" fill="white"/>
<path d="M33.7973 0H39.8667V26H33.7973V23.4983H37.2376V2.50172H33.7973V0Z" fill="white"/>
</g>
</g>
</svg>
