<svg width="25" height="24" viewBox="0 0 25 24" fill="none" xmlns="http://www.w3.org/2000/svg">
<g id="More - Outline">
<path id="Vector" d="M4.83301 12.5H21.333M4.83301 16.25H21.333M4.83301 20H21.333M6.70801 5H19.458C19.9553 5 20.4322 5.19754 20.7838 5.54917C21.1355 5.90081 21.333 6.37772 21.333 6.875C21.333 7.37228 21.1355 7.84919 20.7838 8.20083C20.4322 8.55246 19.9553 8.75 19.458 8.75H6.70801C6.21073 8.75 5.73381 8.55246 5.38218 8.20083C5.03055 7.84919 4.83301 7.37228 4.83301 6.875C4.83301 6.37772 5.03055 5.90081 5.38218 5.54917C5.73381 5.19754 6.21073 5 6.70801 5Z" stroke="#C5C5C5" stroke-width="1.5" stroke-linecap="round" stroke-linejoin="round"/>
</g>
</svg>
