<svg width="70" height="64" viewBox="0 0 70 64" fill="none" xmlns="http://www.w3.org/2000/svg">
<g id="React-icon 1" clip-path="url(#clip0_1325_2785)">
<path id="Vector" d="M35.0004 38.2388C38.4461 38.2388 41.2395 35.4454 41.2395 31.9996C41.2395 28.5539 38.4461 25.7605 35.0004 25.7605C31.5546 25.7605 28.7612 28.5539 28.7612 31.9996C28.7612 35.4454 31.5546 38.2388 35.0004 38.2388Z" fill="#61DAFB"/>
<g id="Group">
<path id="Vector_2" d="M35.0012 44.7825C53.4907 44.7825 68.4795 39.0595 68.4795 31.9999C68.4795 24.9403 53.4907 19.2173 35.0012 19.2173C16.5117 19.2173 1.52295 24.9403 1.52295 31.9999C1.52295 39.0595 16.5117 44.7825 35.0012 44.7825Z" stroke="#61DAFB" stroke-width="3.04348"/>
<path id="Vector_3" d="M23.931 38.3912C33.1758 54.4036 45.6264 64.5228 51.7402 60.993C57.8541 57.4631 55.3159 41.621 46.0712 25.6086C36.8264 9.59622 24.3758 -0.522915 18.262 3.0069C12.1481 6.53673 14.6863 22.3788 23.931 38.3912Z" stroke="#61DAFB" stroke-width="3.04348"/>
<path id="Vector_4" d="M23.9298 25.6085C14.6851 41.6209 12.1469 57.463 18.2608 60.9928C24.3746 64.5226 36.8252 54.4035 46.07 38.3911C55.3147 22.3787 57.8528 6.53659 51.739 3.00677C45.6252 -0.523053 33.1746 9.59608 23.9298 25.6085Z" stroke="#61DAFB" stroke-width="3.04348"/>
</g>
</g>
<defs>
<clipPath id="clip0_1325_2785">
<rect width="70" height="62.2802" fill="white" transform="translate(0 0.859863)"/>
</clipPath>
</defs>
</svg>
